<?xml version="1.0" encoding="UTF-8"?><svg id="Livello_1" xmlns="http://www.w3.org/2000/svg" xmlns:xlink="http://www.w3.org/1999/xlink" viewBox="0 0 306 163"><defs><style>.cls-1{fill:url(#Sfumatura_senza_nome_110);stroke-width:0px;}</style><linearGradient id="Sfumatura_senza_nome_110" x1=".35" y1="81.51" x2="306" y2="81.51" gradientUnits="userSpaceOnUse"><stop offset="0" stop-color="#f69d30"/><stop offset=".49" stop-color="#f6aa30"/><stop offset="1" stop-color="#f6be30"/></linearGradient></defs><path class="cls-1" d="M103.66,162.69L.35,96.8v-30.58L69.44,22.15c14.81-9.45,34.22,1.19,34.22,18.76h0s-66.42,40.06-66.42,40.06v1.06l66.44,40.08c6.51,3.93,14.99,1,17.69-6.11L162.27,8.19c1.8-4.73,6.33-7.86,11.39-7.86h29.02l103.32,65.89v30.58l-69.09,44.07c-14.81,9.45-34.22-1.19-34.22-18.76h0s66.42-40.06,66.42-40.06v-1.06l-66.44-40.08c-6.51-3.93-14.99-1-17.69,6.11l-40.89,107.81c-1.8,4.73-6.33,7.86-11.39,7.86h-29.02"/></svg>