<?xml version="1.0" encoding="UTF-8"?>
<svg id="Livello_1" data-name="Livello 1" xmlns="http://www.w3.org/2000/svg" version="1.1" viewBox="0 0 275 100">
  <defs>
    <style>
      .cls-1 {
        fill: #fff;
        stroke-width: 0px;
      }
    </style>
  </defs>
  <path class="cls-1" d="M82.8,79.8l-17.9-30.1,17.9-30.1,8.6,30.1-8.6,30.1ZM43,76.9l-22.5-22.3h35.8l17.9,30.1-31.2-7.8ZM43,22.5l31.1-7.8-17.9,30.1H20.4l22.6-22.3ZM88.6,0l-40.6,10.5-6,10.4h-12.2c0,0-29.8,28.9-29.8,28.9l29.8,29h12.2c0,0,6,10.3,6,10.3l40.6,10.6,10.9-39.5-6.1-10.3,6.1-10.3L88.6,0ZM180.9,29.2c-5.4,0-9.1,2.3-11.8,6.5h-.2v-5.4h-9.5v39.8h9.7v-22.5c0-5.4,3.4-9.2,8.1-9.2s7.7,2.7,7.7,7.3v24.5h9.7v-26c0-8.7-5.4-14.9-13.7-14.9ZM144.6,53.3c0,5.3-3,9-8,9s-7.3-2.6-7.3-7.2v-24.8h-9.7v26.6c0,8.7,4.9,14.4,13.8,14.4s8.7-2.1,11.4-5.8h.3v4.7h9.4V30.3h-9.7v23h0ZM199.7,30.3h9.7v39.8h-9.7V30.3ZM199.7,18h9.7v8h-9.7v-8ZM264.5,30.3l-5.8,18c-1.3,3.7-2.3,8.7-2.3,8.7h-.3s-1.3-5-2.6-8.7l-6.5-18h-10.4l10.7,28.3c2.3,6.1,3,8.6,3,10.8,0,3.3-1.7,5.4-5.9,5.4h-3.8v8.3h6.2c8.1,0,10.9-3.2,13.9-12l14-40.8h-10.5ZM227.6,58.5v-21.1h6.2v-7h-6.2v-12.5h-9.7v12.4h-5.5v7h5.5v23.4c0,7.5,5.7,9.5,10.8,9.5s5.3-.2,5.3-.2v-7.7h-2.5c-2.3,0-3.9-.9-3.9-3.8h0Z"/>
</svg>