<?xml version="1.0" encoding="UTF-8"?>
<svg id="Livello_1" data-name="Livello 1" xmlns="http://www.w3.org/2000/svg" version="1.1" xmlns:xlink="http://www.w3.org/1999/xlink" viewBox="0 0 500 500">
  <defs>
    <style>
      .cls-1 {
        fill: #e3ebfc;
      }

      .cls-1, .cls-2, .cls-3, .cls-4, .cls-5, .cls-6, .cls-7, .cls-8, .cls-9, .cls-10, .cls-11, .cls-12, .cls-13, .cls-14, .cls-15, .cls-16, .cls-17, .cls-18 {
        stroke-width: 0px;
      }

      .cls-2 {
        fill: #eef1ff;
      }

      .cls-3 {
        fill: #f2f2f2;
      }

      .cls-19 {
        clip-path: url(#clippath-2);
      }

      .cls-4 {
        fill: #d0dbf7;
      }

      .cls-5, .cls-20 {
        fill: #eb725f;
      }

      .cls-6 {
        fill: none;
      }

      .cls-7 {
        fill: #f9ab43;
      }

      .cls-8 {
        fill: #6e7fdd;
      }

      .cls-21 {
        clip-path: url(#clippath-1);
      }

      .cls-22 {
        opacity: .3;
      }

      .cls-9 {
        fill: #ffcf74;
      }

      .cls-10 {
        fill: #c2cef2;
      }

      .cls-11 {
        fill: #cad2f9;
      }

      .cls-12 {
        fill: #e2e6ff;
      }

      .cls-13 {
        fill: #0046a0;
        opacity: .1;
      }

      .cls-13, .cls-20 {
        isolation: isolate;
      }

      .cls-14 {
        fill: #f5f9ff;
      }

      .cls-23 {
        clip-path: url(#clippath);
      }

      .cls-24 {
        clip-path: url(#clippath-3);
      }

      .cls-15 {
        fill: #e0e9fc;
      }

      .cls-16 {
        fill: #fff;
      }

      .cls-17 {
        fill: #edf0fc;
      }

      .cls-20 {
        font-family: ArialMT, Arial;
        font-size: 52px;
        letter-spacing: 0em;
      }

      .cls-18 {
        fill: #f9a9a0;
      }
    </style>
    <clipPath id="clippath">
      <path class="cls-6" d="M401.1,404.4s-10.7-48.3,56-62.4c0,0,5.4,52.5-56,62.4Z"/>
    </clipPath>
    <clipPath id="clippath-1">
      <path class="cls-6" d="M105.6,334.5s-63.3-9.7-49.1-96.9c0,0,65.8,18.1,49.1,96.9Z"/>
    </clipPath>
    <clipPath id="clippath-2">
      <polygon class="cls-6" points="212.5 212.5 142.6 212.5 167.8 120.1 187.3 120.1 212.5 212.5"/>
    </clipPath>
    <clipPath id="clippath-3">
      <polygon class="cls-6" points="423.5 410.5 303.3 410.5 346.6 251.6 380.2 251.6 423.5 410.5"/>
    </clipPath>
  </defs>
  <g id="BACKGROUND">
    <g>
      <polygon class="cls-11" points="67.9 197.6 67.9 193.2 64.9 193.2 64.9 197.6 60.6 197.6 60.6 200.5 64.9 200.5 64.9 204.8 67.9 204.8 67.9 200.5 72.2 200.5 72.2 197.6 67.9 197.6"/>
      <polygon class="cls-11" points="121.5 125 121.5 119.4 117.8 119.4 117.8 125 112.2 125 112.2 128.7 117.8 128.7 117.8 134.3 121.5 134.3 121.5 128.7 127.1 128.7 127.1 125 121.5 125"/>
      <polygon class="cls-11" points="244.7 182.5 244.7 172.3 237.9 172.3 237.9 182.5 227.7 182.5 227.7 189.3 237.9 189.3 237.9 199.5 244.7 199.5 244.7 189.3 254.9 189.3 254.9 182.5 244.7 182.5"/>
      <polygon class="cls-11" points="387.1 112.8 387.1 108.4 384.2 108.4 384.2 112.8 379.8 112.8 379.8 115.7 384.2 115.7 384.2 120 387.1 120 387.1 115.7 391.4 115.7 391.4 112.8 387.1 112.8"/>
      <polygon class="cls-11" points="446.5 137.3 446.5 131.7 442.8 131.7 442.8 137.3 437.2 137.3 437.2 141 442.8 141 442.8 146.6 446.5 146.6 446.5 141 452.1 141 452.1 137.3 446.5 137.3"/>
      <polygon class="cls-11" points="47.5 162.8 47.5 152.6 40.8 152.6 40.8 162.8 30.6 162.8 30.6 169.5 40.8 169.5 40.8 179.7 47.5 179.7 47.5 169.5 57.7 169.5 57.7 162.8 47.5 162.8"/>
    </g>
    <g>
      <path class="cls-2" d="M317.3,71.3c0,1.1-.9,1.9-1.9,1.9s-1.9-.9-1.9-1.9.9-1.9,1.9-1.9,1.9.9,1.9,1.9Z"/>
      <circle class="cls-2" cx="179.3" cy="86.7" r="3.6"/>
      <circle class="cls-2" cx="57.7" cy="114.2" r="3.6"/>
      <path class="cls-2" d="M459.2,167.7c0,1.1-.9,1.9-1.9,1.9s-1.9-.9-1.9-1.9.9-1.9,1.9-1.9,1.9.9,1.9,1.9Z"/>
      <path class="cls-2" d="M465.3,330.4c0,1.1-.9,1.9-1.9,1.9s-1.9-.9-1.9-1.9.9-1.9,1.9-1.9c1.1,0,1.9.9,1.9,1.9Z"/>
      <circle class="cls-2" cx="468.6" cy="374.9" r="3.6"/>
      <circle class="cls-2" cx="26.8" cy="245.3" r="3.6"/>
      <path class="cls-2" d="M126.6,73.2c0,1.1-.9,1.9-1.9,1.9s-1.9-.9-1.9-1.9.9-1.9,1.9-1.9c1.1,0,1.9.9,1.9,1.9Z"/>
      <path class="cls-2" d="M38.7,387.3c0,1.1-.9,1.9-1.9,1.9s-1.9-.9-1.9-1.9.9-1.9,1.9-1.9c1.1,0,1.9.9,1.9,1.9Z"/>
    </g>
  </g>
  <g id="OBJECTS">
    <ellipse class="cls-17" cx="250" cy="413.5" rx="229.7" ry="17.1"/>
    <g>
      <g>
        <path class="cls-5" d="M401.1,404.4s-10.7-48.3,56-62.4c0,0,5.4,52.5-56,62.4Z"/>
        <g class="cls-23">
          <path class="cls-18" d="M462.3,352.7v-.5s-8.6-1.5-18.6.7c3.6-2.9,7.5-5.7,11.7-8.5l-.3-.5c-7.3,4.8-13.6,9.7-19.1,14.6.9-11.4,4.5-18.7,4.5-18.7l-.5-.2c0,0-3.8,7.7-4.6,19.5-2.5,2.2-4.8,4.4-6.9,6.6,0,0,0,0,0,0h0c-1.7,1.8-3.3,3.5-4.9,5.2-1.4-14,2.8-23.8,2.9-23.9l-.5-.2c0,.1-4.5,10.2-2.9,24.7-1.8,2-3.4,4-5,5.9,0,0,0,0,0,0h0c-1.2,1.5-2.3,3-3.4,4.5-1-12.6-.4-24.6-.4-24.7h-.5c0,0-.6,12.5.5,25.4-3.8,5.3-6.5,9.8-8.3,13.2-2.3-11-1.6-26.1-1.6-26.3h-.5c0,.1-.7,15.9,1.8,27-1.8,3.5-2.6,5.5-2.6,5.6l.5.2c0-.1,1.6-4.3,5.5-10.7,15.5-5,32.2-1.6,32.4-1.6v-.5c0,0-16.5-3.4-32,1.4,2.3-3.7,5.3-8.2,9.1-13,13.9-4.8,34.5-1.8,34.7-1.8v-.5c-.1,0-20.1-2.9-34.1,1.5,2.8-3.5,6-7.2,9.8-11,11.4-5.7,32.6-4.9,32.9-4.9v-.5c-.2,0-20-.8-31.7,4.3,3.8-3.7,8-7.6,12.7-11.4,10.4-2.5,19.5-1,19.6-.9Z"/>
        </g>
      </g>
      <g>
        <path class="cls-5" d="M105.6,334.5s-63.3-9.7-49.1-96.9c0,0,65.8,18.1,49.1,96.9Z"/>
        <g class="cls-21">
          <path class="cls-18" d="M71.9,236.3l-.6-.4c0,.1-5.8,9.7-7.9,22.9-1.7-5.7-3.3-11.7-4.7-18.1h-.7c2.4,11.1,5.3,21.1,8.7,30-13.3-6.4-20.4-14.2-20.5-14.3l-.5.5c0,0,7.5,8.2,21.4,14.7,1.5,4,3.1,7.8,4.7,11.4,0,0,0,0,0,0h0c1.3,2.9,2.6,5.7,4,8.3-17.6-4.8-27.4-14.6-27.5-14.7l-.5.5c0,.1,10.2,10.2,28.4,15,1.6,3.1,3.2,6,4.8,8.8,0,0,0,0,0,0h0c1.3,2.2,2.5,4.2,3.8,6.2-15.7-4.7-29.9-11-30-11.1l-.3.6c.1,0,14.9,6.6,30.9,11.4,4.6,7.1,8.8,12.5,12.1,16.2-14.4-2.4-32.3-10.3-32.5-10.4l-.3.6c.2,0,18.9,8.4,33.5,10.6,3.3,3.8,5.5,5.7,5.5,5.8l.5-.5c-.1-.1-4.4-4-10.4-11.7,1.3-21.1,13.2-39.7,13.3-39.8l-.6-.4c-.1.2-11.8,18.5-13.4,39.4-3.4-4.5-7.4-10.2-11.5-17.1.7-19,14-42.5,14.2-42.7l-.6-.4c-.1.2-13,23-14.2,42-2.9-5-5.8-10.7-8.6-16.9-1.6-16.4,9.4-41.7,9.5-41.9l-.6-.3c-.1.2-10.3,23.8-9.7,40.4-2.8-6.3-5.4-13.2-7.7-20.7,1.9-13.7,8-24,8-24.1Z"/>
        </g>
      </g>
      <g>
        <path class="cls-7" d="M122.5,400.6c-2.3-.8-4.4-1.9-6.6-3-5.6-2.9-10.9-6.2-16-9.9-7.5-5.4-14.4-11.5-20.7-18.2-7.9-8.5-14.8-17.9-20.4-28-6.9-12.3-12-25.5-15.3-39.2-.5-1.9-.9-3.8-1.3-5.7-.3-1.2,1.6-1.7,1.9-.5,3,14,7.6,27.7,14.3,40.4,5.4,10.4,12.1,20.2,19.9,29,6.2,7,13.1,13.4,20.6,19,5.2,3.9,10.8,7.5,16.5,10.6,1.8.9,3.5,1.8,5.3,2.6.5.2,1.1.5,1.6.7-.3-.1.2,0,.4.1.1,0,.2,0,.3.1,0,0,0,0,.1,0,1.2.4.7,2.3-.5,1.9h0Z"/>
        <g>
          <path class="cls-7" d="M47.8,313.9s9.1-14.5-10.5-40c0,0-4,29,10.5,40Z"/>
          <path class="cls-9" d="M39.1,280c.8,2.4,1.6,4.8,2.3,7.2.7,2.4,1.5,4.8,2.1,7.3.7,2.4,1.3,4.9,1.8,7.3.3,1.2.5,2.5.8,3.7.3,1.2.4,2.5.7,3.7-.1-2.5-.4-5.1-.9-7.6-.4-2.5-1-5-1.7-7.4-.7-2.4-1.4-4.9-2.3-7.3-.9-2.4-1.8-4.7-2.9-7Z"/>
        </g>
        <g>
          <g>
            <path class="cls-7" d="M54.9,331.5s-2.1-17-33.3-24.4c0,0,15.1,25.1,33.3,24.4Z"/>
            <path class="cls-9" d="M26.8,310.6c2.1,1.4,4.3,2.7,6.4,4.1,2.1,1.4,4.2,2.8,6.2,4.3,2.1,1.4,4.1,3,6,4.6,1,.8,2,1.6,2.9,2.4,1,.8,1.9,1.7,2.9,2.5-1.7-1.9-3.5-3.7-5.4-5.3-1.9-1.7-3.9-3.2-6-4.7-2.1-1.5-4.2-2.9-6.4-4.2-2.2-1.3-4.4-2.5-6.7-3.6Z"/>
          </g>
          <g>
            <path class="cls-7" d="M55.1,331s14.7-8.9,8.7-40.4c0,0-16.7,24-8.7,40.4Z"/>
            <path class="cls-9" d="M62.7,296.9c-.4,2.5-.7,5-1.2,7.5-.4,2.5-.9,5-1.4,7.4-.5,2.5-1.1,4.9-1.7,7.4-.3,1.2-.6,2.4-1,3.7-.3,1.2-.7,2.4-1,3.6,1-2.3,1.9-4.7,2.6-7.1.7-2.4,1.3-4.9,1.9-7.4.5-2.5.9-5,1.2-7.5.3-2.5.5-5,.5-7.6Z"/>
          </g>
        </g>
        <g>
          <g>
            <path class="cls-7" d="M68.6,355s-5.1-16.4-37.2-18.1c0,0,19.4,22,37.2,18.1Z"/>
            <path class="cls-9" d="M37.3,339.4c2.3,1,4.7,1.9,7,2.9,2.3,1,4.6,2,6.9,3.1,2.3,1,4.5,2.2,6.8,3.4,1.1.6,2.2,1.2,3.3,1.8,1.1.6,2.2,1.3,3.3,1.9-2-1.5-4.1-3-6.3-4.3-2.2-1.3-4.4-2.5-6.7-3.6-2.3-1.1-4.6-2.1-7-3-2.4-.9-4.8-1.7-7.2-2.3Z"/>
          </g>
          <g>
            <path class="cls-7" d="M68.8,354.4s12.9-11.3,1.3-41.3c0,0-12.1,26.6-1.3,41.3Z"/>
            <path class="cls-9" d="M70.1,319.5c0,2.5.2,5.1.2,7.6,0,2.5,0,5,0,7.6,0,2.5-.2,5-.3,7.6,0,1.3-.2,2.5-.3,3.8,0,1.3-.3,2.5-.4,3.8.6-2.5,1-5,1.3-7.5.3-2.5.4-5.1.5-7.6,0-2.5,0-5.1-.1-7.6-.2-2.5-.4-5.1-.8-7.6Z"/>
          </g>
        </g>
        <g>
          <g>
            <path class="cls-7" d="M88,377s-9-14.6-40.5-8.3c0,0,24.2,16.5,40.5,8.3Z"/>
            <path class="cls-9" d="M53.7,369.7c2.5.3,5,.7,7.5,1.1,2.5.4,5,.8,7.5,1.3,2.5.4,4.9,1,7.4,1.6,1.2.3,2.5.6,3.7.9,1.2.3,2.4.7,3.7,1-2.3-1-4.7-1.9-7.2-2.6-2.4-.7-4.9-1.3-7.4-1.8-2.5-.5-5-.9-7.5-1.2-2.5-.3-5.1-.5-7.6-.5Z"/>
          </g>
          <g>
            <path class="cls-7" d="M88,376.4s9.7-14.2-9-40.3c0,0-5.1,28.8,9,40.3Z"/>
            <path class="cls-9" d="M80.6,342.2c.7,2.4,1.4,4.9,2.1,7.3.6,2.4,1.3,4.9,1.8,7.3.6,2.4,1.1,4.9,1.6,7.4.2,1.2.5,2.5.6,3.7.2,1.2.4,2.5.6,3.8,0-2.5-.2-5.1-.6-7.6-.3-2.5-.8-5-1.4-7.5-.6-2.5-1.2-4.9-2-7.3-.8-2.4-1.6-4.8-2.7-7.1Z"/>
          </g>
        </g>
        <g>
          <g>
            <path class="cls-7" d="M109.5,393.4s-11.4-12.9-41.3-1.2c0,0,26.7,12.1,41.3,1.2Z"/>
            <path class="cls-9" d="M74.6,392.1c2.5,0,5.1-.2,7.6-.2,2.5,0,5,0,7.6,0,2.5,0,5,.2,7.6.3,1.3,0,2.5.2,3.8.3,1.3,0,2.5.3,3.8.4-2.5-.6-5-1-7.5-1.3-2.5-.3-5.1-.4-7.6-.5-2.5,0-5.1,0-7.6.2-2.5.2-5.1.4-7.6.8Z"/>
          </g>
          <g>
            <path class="cls-7" d="M109.4,392.9s7.1-15.6-15.8-38.2c0,0-.1,29.3,15.8,38.2Z"/>
            <path class="cls-9" d="M96.3,360.4c1.1,2.3,2.2,4.5,3.3,6.8,1.1,2.3,2.1,4.6,3.1,6.9,1,2.3,1.9,4.7,2.8,7,.4,1.2.9,2.4,1.3,3.6.5,1.2.8,2.4,1.2,3.6-.5-2.5-1.1-5-1.9-7.4-.8-2.4-1.7-4.8-2.6-7.1-1-2.3-2.1-4.6-3.3-6.9-1.2-2.2-2.4-4.5-3.9-6.6Z"/>
          </g>
        </g>
      </g>
      <g>
        <path class="cls-7" d="M373.9,375.7c2.2-1,4.3-2.2,6.4-3.4,5.4-3.2,10.5-6.8,15.4-10.8,7.1-5.8,13.7-12.3,19.6-19.4,7.4-8.9,13.7-18.8,18.7-29.2,6.1-12.7,10.4-26.2,12.9-40.1.4-1.9.7-3.9,1-5.8.2-1.2-1.7-1.6-1.9-.4-2.1,14.2-6,28.1-11.8,41.2-4.8,10.7-10.8,20.9-18.1,30.1-5.8,7.4-12.3,14.2-19.4,20.3-5,4.2-10.3,8.1-15.9,11.6-1.7,1-3.4,2-5.2,3-.5.3-1,.5-1.6.8.3-.1-.2.1-.3.2-.1,0-.2,0-.3.1,0,0,0,0-.1,0-1.1.5-.5,2.3.6,1.8h0Z"/>
        <g>
          <path class="cls-7" d="M443.2,284.5s-10-14,8.1-40.5c0,0,5.8,28.7-8.1,40.5Z"/>
          <path class="cls-9" d="M449.8,250.2c-.7,2.4-1.3,4.9-1.9,7.3-.6,2.5-1.2,4.9-1.7,7.4-.6,2.5-1,4.9-1.4,7.4-.2,1.2-.4,2.5-.6,3.7-.2,1.2-.3,2.5-.5,3.8,0-2.5.1-5.1.4-7.6.3-2.5.7-5,1.2-7.5.6-2.5,1.1-5,1.9-7.4.7-2.4,1.5-4.8,2.5-7.2Z"/>
        </g>
        <g>
          <g>
            <path class="cls-7" d="M437.2,302.6s1-17.1,31.8-26.4c0,0-13.6,25.9-31.8,26.4Z"/>
            <path class="cls-9" d="M464,280.1c-2.1,1.5-4.1,3-6.1,4.5-2,1.5-4,3.1-5.9,4.7-2,1.6-3.9,3.2-5.8,4.9-.9.8-1.9,1.7-2.8,2.6-1,.8-1.8,1.8-2.7,2.6,1.6-2,3.3-3.9,5.1-5.7,1.8-1.8,3.7-3.5,5.7-5.1,2-1.6,4-3.1,6.1-4.6,2.1-1.4,4.2-2.8,6.5-4Z"/>
          </g>
          <g>
            <path class="cls-7" d="M437,302.1s-15.2-7.9-11.1-39.8c0,0,18.1,23,11.1,39.8Z"/>
            <path class="cls-9" d="M427.3,268.5c.5,2.5,1,5,1.6,7.4.6,2.5,1.2,4.9,1.9,7.3.6,2.4,1.4,4.9,2.1,7.3.4,1.2.8,2.4,1.2,3.6.4,1.2.9,2.4,1.3,3.6-1.2-2.3-2.2-4.6-3.1-7-.9-2.4-1.6-4.8-2.3-7.3-.6-2.5-1.2-4.9-1.7-7.4-.5-2.5-.8-5-1-7.5Z"/>
          </g>
        </g>
        <g>
          <g>
            <path class="cls-7" d="M424.9,326.8s4.1-16.7,36-20.3c0,0-18,23.1-36,20.3Z"/>
            <path class="cls-9" d="M455.2,309.4c-2.3,1.1-4.6,2.2-6.8,3.3-2.2,1.2-4.5,2.3-6.7,3.6-2.2,1.2-4.4,2.5-6.5,3.8-1.1.7-2.1,1.3-3.2,2-1.1.7-2.1,1.4-3.2,2.1,1.9-1.7,3.9-3.2,6-4.6,2.1-1.4,4.3-2.7,6.5-4,2.2-1.2,4.5-2.4,6.8-3.4,2.3-1,4.7-2,7.1-2.8Z"/>
          </g>
          <g>
            <path class="cls-7" d="M424.7,326.3s-13.5-10.5-3.8-41.2c0,0,13.7,25.9,3.8,41.2Z"/>
            <path class="cls-9" d="M421.3,291.5c0,2.5.1,5.1.3,7.6.1,2.5.3,5,.5,7.6.2,2.5.5,5,.8,7.5.2,1.3.3,2.5.5,3.7.1,1.3.4,2.5.6,3.7-.7-2.4-1.3-4.9-1.8-7.4-.4-2.5-.8-5-1-7.6-.2-2.5-.3-5.1-.3-7.6,0-2.5,0-5.1.4-7.6Z"/>
          </g>
        </g>
        <g>
          <g>
            <path class="cls-7" d="M406.9,350s8.1-15.1,39.9-10.7c0,0-23.2,17.9-39.9,10.7Z"/>
            <path class="cls-9" d="M440.7,340.7c-2.5.5-5,1-7.4,1.5-2.5.6-4.9,1.1-7.4,1.8-2.5.6-4.9,1.3-7.3,2.1-1.2.4-2.4.7-3.6,1.2-1.2.4-2.4.8-3.6,1.2,2.3-1.1,4.6-2.2,7-3,2.4-.9,4.8-1.6,7.3-2.3,2.5-.6,4.9-1.2,7.4-1.6,2.5-.4,5-.8,7.6-.9Z"/>
          </g>
          <g>
            <path class="cls-7" d="M406.9,349.4s-10.5-13.6,6.6-40.8c0,0,6.8,28.5-6.6,40.8Z"/>
            <path class="cls-9" d="M412.2,314.8c-.6,2.5-1.1,4.9-1.6,7.4-.5,2.5-1,5-1.4,7.4-.5,2.5-.8,5-1.1,7.5-.2,1.3-.3,2.5-.4,3.8-.2,1.3-.2,2.5-.3,3.8-.1-2.5,0-5.1.1-7.6.2-2.5.5-5.1.9-7.6.5-2.5.9-5,1.6-7.4.6-2.5,1.3-4.9,2.2-7.3Z"/>
          </g>
        </g>
        <g>
          <g>
            <path class="cls-7" d="M386.4,367.7s10.6-13.5,41.2-3.7c0,0-25.9,13.7-41.2,3.7Z"/>
            <path class="cls-9" d="M421.2,364.3c-2.5,0-5.1.1-7.6.3-2.5.1-5,.3-7.6.5-2.5.2-5,.5-7.5.8-1.3.1-2.5.3-3.7.5-1.3.1-2.5.4-3.8.6,2.4-.7,4.9-1.3,7.4-1.8,2.5-.4,5-.7,7.6-1,2.5-.2,5.1-.3,7.6-.3,2.5,0,5.1,0,7.6.4Z"/>
          </g>
          <g>
            <path class="cls-7" d="M386.5,367.1s-8-15.2,13.4-39.1c0,0,1.9,29.2-13.4,39.1Z"/>
            <path class="cls-9" d="M397.6,334c-1,2.3-2,4.7-2.9,7-.9,2.4-1.8,4.7-2.6,7.1-.9,2.4-1.6,4.8-2.4,7.2-.4,1.2-.7,2.4-1,3.6-.4,1.2-.6,2.4-1,3.7.3-2.5.8-5,1.4-7.5.6-2.5,1.4-4.9,2.2-7.3.9-2.4,1.8-4.8,2.8-7.1,1-2.3,2.2-4.6,3.5-6.8Z"/>
          </g>
        </g>
      </g>
    </g>
    <g>
      <path class="cls-8" d="M407,402.5c0,4.4-3.6,8-8,8H101c-4.4,0-8-3.6-8-8v-182c0-4.4,3.6-8,8-8h298c4.4,0,8,3.6,8,8v182h0Z"/>
      <rect class="cls-1" x="121.1" y="225.2" width="257.7" height="172.6"/>
      <g>
        <path class="cls-4" d="M303.8,286.3h-35.4v-35.7h-72.3v124.3h107.9v-88.5h-.1ZM251.9,343.7c-1.3,1.3-3,1.9-4.9,1.9s-3.6-.6-4.9-1.9c-1.3-1.3-1.9-2.9-1.9-4.8s.6-3.6,1.9-4.8c1.3-1.3,2.9-1.9,4.9-1.9s3.5.6,4.9,1.9c1.3,1.3,2,2.9,2,4.8,0,1.9-.7,3.5-2,4.8ZM265.7,312.4c-1.1,1.5-3,3.3-5.7,5.2-1.8,1.3-3.1,2.3-4,3s-1.5,1.5-1.9,2.4c-.4.9-.6,2-.6,3.2v1.4h-12.9v-1.5c0-5,2-8.9,5.9-11.7l1.9-1.3c1.8-1.2,3.1-2.1,3.8-2.9.7-.8,1.1-1.7,1.1-2.8,0-2.8-2.4-4.3-7.1-4.3s-4.5.3-6.8.9c-2.3.6-4.6,1.4-6.7,2.5v-11.3c4.5-2.1,9.5-3.1,15.1-3.1s10.8,1.3,14.3,3.8c3.5,2.5,5.3,6,5.3,10.5,0,2.5-.6,4.5-1.7,6.1Z"/>
        <polygon class="cls-4" points="274.4 253.7 274.4 280.2 300.7 280.2 274.4 253.7"/>
      </g>
    </g>
    <g>
      <g>
        <g>
          <g>
            <rect class="cls-14" x="76.7" y="289.9" width="163.5" height="120.6"/>
            <rect class="cls-4" x="76.7" y="289.9" width="163.5" height="15"/>
          </g>
          <g>
            <path class="cls-5" d="M89.8,297.8c0,1.9-1.5,3.4-3.4,3.4s-3.4-1.5-3.4-3.4,1.5-3.4,3.4-3.4,3.4,1.5,3.4,3.4Z"/>
            <path class="cls-7" d="M101.4,297.8c0,1.9-1.5,3.4-3.4,3.4s-3.4-1.5-3.4-3.4,1.5-3.4,3.4-3.4,3.4,1.5,3.4,3.4Z"/>
            <path class="cls-8" d="M113,297.8c0,1.9-1.5,3.4-3.4,3.4s-3.4-1.5-3.4-3.4,1.5-3.4,3.4-3.4,3.4,1.5,3.4,3.4Z"/>
          </g>
        </g>
        <g>
          <path class="cls-4" d="M225.8,357.2c-2.8-2.7-5.6-5.1-8.4-7.1-3-2.2-5.9-3.9-8.4-5.4-5.6-3.1-11.2-5.6-16.7-7.4-10.7-3.6-21.6-5.3-33.4-5.3h0c-11.8,0-22.8,1.8-33.4,5.4-5.5,1.8-11.2,4.3-16.8,7.4-2.5,1.4-5.4,3.2-8.3,5.3-2.9,2-5.7,4.4-8.5,7l-1.9,1.8,1.9,1.8c2.8,2.7,5.6,5.1,8.4,7,3,2.2,5.9,3.9,8.4,5.3,5.6,3.1,11.2,5.6,16.7,7.4,10.6,3.6,21.6,5.3,33.4,5.4h0c11.7,0,22.6-1.7,33.3-5.3,5.6-1.8,11.2-4.3,16.8-7.5,2.5-1.4,5.4-3.2,8.3-5.3,2.8-2,5.7-4.4,8.5-7.1l1.9-1.8-1.9-1.8ZM158.8,377.1c-10,0-18.1-8.1-18.1-18.1s8.1-18.1,18.1-18.1,5.4.6,7.7,1.7c-1.5,1.3-2.4,3.2-2.4,5.3,0,3.9,3.1,7,7,7s3.5-.7,4.8-1.9c.7,1.9,1,3.9,1,6,0,10-8.1,18.1-18.1,18.1Z"/>
          <path class="cls-5" d="M158.4,317.5c-22.9,0-41.6,18.6-41.6,41.6s18.6,41.6,41.6,41.6,41.6-18.6,41.6-41.6c0-22.9-18.6-41.6-41.6-41.6ZM158.4,325.3c7.9,0,15.1,2.7,20.9,7.3l-47.3,47.3c-4.6-5.8-7.3-13-7.3-20.9,0-18.6,15.1-33.7,33.7-33.7ZM158.4,392.7c-7.9,0-15.1-2.7-20.9-7.3l47.3-47.3c4.6,5.8,7.3,13,7.3,20.9,0,18.6-15.1,33.7-33.7,33.7Z"/>
        </g>
      </g>
      <g>
        <g>
          <rect class="cls-3" x="269.9" y="153.6" width="153.4" height="113.2"/>
          <rect class="cls-15" x="269.9" y="153.6" width="153.4" height="14.1"/>
        </g>
        <g>
          <path class="cls-5" d="M282.2,161c0,1.8-1.4,3.2-3.2,3.2s-3.2-1.4-3.2-3.2,1.4-3.2,3.2-3.2c1.8,0,3.2,1.4,3.2,3.2Z"/>
          <circle class="cls-7" cx="289.9" cy="161" r="3.2"/>
          <circle class="cls-8" cx="300.7" cy="161" r="3.2"/>
        </g>
      </g>
    </g>
    <g>
      <g>
        <g>
          <g>
            <g>
              <polygon class="cls-7" points="212.5 212.5 142.6 212.5 167.8 120.1 187.3 120.1 212.5 212.5"/>
              <g class="cls-19">
                <g>
                  <rect class="cls-9" x="121.5" y="158.9" width="112.1" height="10.7"/>
                  <rect class="cls-9" x="121.5" y="185.4" width="112.1" height="10.7"/>
                  <rect class="cls-9" x="121.5" y="132.4" width="112.1" height="10.7"/>
                </g>
              </g>
            </g>
            <path class="cls-13" d="M212.5,212.5l-25.2-92.4h-9.3c7.5,13.1,12,29.6,12,47.7s-3.9,32.1-10.4,44.7h32.8Z"/>
          </g>
          <rect class="cls-5" x="135.4" y="206.6" width="84.3" height="5.9"/>
        </g>
        <g class="cls-22">
          <path class="cls-16" d="M170.2,128.1c-2.2,8-4.4,16-6.5,24-3.5,12.8-7,25.5-10.4,38.3-.8,2.9-1.6,5.8-2.4,8.7-.6,2.2,2.8,3.1,3.3.9,2.2-8,4.4-16,6.5-24,3.5-12.8,7-25.5,10.4-38.3.8-2.9,1.6-5.8,2.4-8.7.6-2.2-2.8-3.1-3.3-.9h0Z"/>
        </g>
      </g>
      <g>
        <g>
          <g>
            <g>
              <polygon class="cls-7" points="423.5 410.5 303.3 410.5 346.6 251.6 380.2 251.6 423.5 410.5"/>
              <g class="cls-24">
                <g>
                  <rect class="cls-9" x="267" y="318.2" width="192.9" height="18.5"/>
                  <rect class="cls-9" x="267" y="363.8" width="192.9" height="18.5"/>
                  <rect class="cls-9" x="267" y="272.7" width="192.9" height="18.5"/>
                </g>
              </g>
            </g>
            <path class="cls-13" d="M423.5,410.5l-43.3-158.9h-15.9c13,22.5,20.7,51,20.7,82s-6.6,55.3-17.9,76.9h56.4Z"/>
          </g>
          <rect class="cls-5" x="290.9" y="400.3" width="145.1" height="10.2"/>
        </g>
        <g class="cls-22">
          <path class="cls-16" d="M350.7,265.3c-3.8,13.8-7.5,27.6-11.3,41.3-6,21.9-12,43.9-17.9,65.8-1.4,5-2.7,10-4.1,15-1,3.7,4.7,5.3,5.7,1.6,3.8-13.8,7.5-27.6,11.3-41.3,6-21.9,12-43.9,17.9-65.8,1.4-5,2.7-10,4.1-15,1-3.7-4.7-5.3-5.7-1.6h0Z"/>
        </g>
      </g>
    </g>
    <g>
      <g>
        <rect class="cls-5" x="357.6" y="112.2" width="4.3" height="61.1" transform="translate(138 459.9) rotate(-76.7)"/>
        <rect class="cls-8" x="373.4" y="132.6" width="7.2" height="28.4" transform="translate(147.3 479.9) rotate(-76.7)"/>
      </g>
      <g>
        <circle class="cls-8" cx="320" cy="131.1" r="22.4" transform="translate(-2.4 6) rotate(-1.1)"/>
        <circle class="cls-10" cx="320" cy="131.1" r="17.5" transform="translate(-19.9 194.8) rotate(-32.9)"/>
        <path class="cls-16" d="M330.8,124.6c-.7,3-3.7,4.8-6.7,4.1s-4.8-3.7-4.1-6.7,3.7-4.8,6.7-4.1c3,.7,4.8,3.7,4.1,6.7Z"/>
      </g>
    </g>
    <g>
      <path class="cls-12" d="M228.5,130c1-3.3,3.1-5.6,6.3-6.6l1.5-.5c1.4-.4,2.5-.8,3.1-1.2.6-.4,1.1-.9,1.3-1.7.6-1.9-.7-3.3-3.9-4.3-1.5-.4-3.1-.7-4.8-.8-1.7,0-3.4,0-5,.3l2.3-7.6c3.4-.5,7-.1,10.8,1,4,1.2,7,3,8.8,5.4,1.9,2.4,2.3,5.1,1.4,8.1-.5,1.7-1.3,2.9-2.3,3.7-1.1.8-2.7,1.6-4.9,2.3-1.5.5-2.6.9-3.3,1.2-.7.3-1.3.7-1.7,1.2s-.8,1.2-1.1,2l-.3.9-8.7-2.6.3-1ZM226,142.1c-.6-1.1-.7-2.3-.3-3.6.4-1.3,1.2-2.3,2.3-2.9,1.1-.6,2.3-.7,3.7-.3,1.3.4,2.2,1.1,2.9,2.3.6,1.1.8,2.3.4,3.6s-1.2,2.2-2.3,2.8c-1.2.6-2.4.7-3.7.3-1.3-.4-2.3-1.2-2.9-2.3Z"/>
      <path class="cls-12" d="M103.4,169.1c1.9,2.9,2.2,6,.9,9.1l-.6,1.5c-.6,1.4-1,2.4-1.1,3.1-.1.7,0,1.4.4,2.1,1.1,1.7,3,1.6,5.8-.2,1.3-.8,2.5-1.9,3.7-3.1s2.2-2.6,3-4l4.2,6.7c-1.9,2.9-4.5,5.4-7.8,7.5-3.6,2.3-6.8,3.3-9.9,3.1-3-.2-5.4-1.6-7-4.2-.9-1.5-1.4-2.9-1.3-4.2,0-1.3.6-3.1,1.4-5.2.6-1.5,1-2.6,1.2-3.3.2-.7.3-1.4.2-2.1,0-.7-.4-1.4-.8-2.1l-.5-.8,7.6-4.8.6.9ZM95.9,159.2c1.3.3,2.2,1,3,2.1.7,1.2,1,2.4.7,3.6-.3,1.2-1,2.2-2.2,3-1.1.7-2.3.9-3.6.7-1.3-.3-2.3-1-3-2.1-.7-1.1-.9-2.3-.6-3.6.3-1.3,1-2.3,2.2-3,1.2-.7,2.4-1,3.6-.7Z"/>
      <path class="cls-12" d="M440,210c.7-2.4,2.2-3.9,4.5-4.7l1.1-.4c1-.3,1.8-.6,2.2-.8.4-.3.8-.7.9-1.2.4-1.4-.5-2.4-2.8-3-1-.3-2.2-.5-3.4-.6-1.2,0-2.4,0-3.5.2l1.6-5.4c2.4-.3,5-.1,7.6.7,2.9.9,5,2.1,6.3,3.8,1.3,1.7,1.7,3.6,1,5.7-.4,1.2-.9,2.1-1.7,2.6-.8.6-1.9,1.1-3.5,1.6-1.1.4-1.8.7-2.3.9-.5.2-.9.5-1.2.9-.3.4-.6.8-.8,1.4l-.2.7-6.1-1.8.2-.7ZM438.2,218.6c-.4-.8-.5-1.7-.2-2.6.3-.9.8-1.6,1.6-2,.8-.4,1.7-.5,2.6-.2.9.3,1.6.8,2,1.6.5.8.5,1.7.3,2.6-.3.9-.8,1.6-1.6,2-.8.4-1.7.5-2.6.2-.9-.3-1.6-.8-2-1.6Z"/>
    </g>
    <path class="cls-15" d="M44,219.9c0,1.1-.9,1.9-1.9,1.9s-1.9-.9-1.9-1.9.9-1.9,1.9-1.9,1.9.9,1.9,1.9Z"/>
  </g>
  <g id="TEXTS">
    <text class="cls-20" transform="translate(304.2 233)"><tspan x="0" y="0">404</tspan></text>
  </g>
</svg>