<?xml version="1.0" encoding="utf-8"?>
<!-- Generator: Adobe Illustrator 28.1.0, SVG Export Plug-In . SVG Version: 6.00 Build 0)  -->
<svg version="1.1" id="Livello_1" xmlns="http://www.w3.org/2000/svg" xmlns:xlink="http://www.w3.org/1999/xlink" x="0px" y="0px"
	 viewBox="0 0 595.28 841.89" style="enable-background:new 0 0 595.28 841.89;" xml:space="preserve">
<style type="text/css">
	.st0{fill:#CC8724;}
	.st1{fill:#AD6E15;}
	.st2{fill:#DD8D05;}
	.st3{fill:#DD9D42;}
	.st4{fill:#EFBD73;}
	.st5{fill:#FFFFFF;}
</style>
<g>
	<path class="st0" d="M329.61,372.48c-9.95,9.01-15.54,21.53-16.77,37.52c0.08,2.01,0.13,4.05,0.13,6.12c0,2.38-0.07,4.71-0.17,7
		c1.1,16.37,6.7,29.09,16.82,38.14c11.35,10.14,29.29,15.21,53.81,15.21h84.47L352.27,360.85C343,363.34,335.43,367.2,329.61,372.48
		z"/>
	<path class="st1" d="M352.27,360.85L467.9,476.48V357.49h-84.47C371.47,357.34,361.1,358.48,352.27,360.85z"/>
	<path class="st2" d="M297.74,135.84c-96.47,0-181.76,47.85-233.45,121.11c-32.8,46.49-52.08,103.2-52.08,164.42
		c0,65.5,22.07,125.83,59.15,174V320.29h56.27h85.88c32.7,0,57.45,8.4,74.25,25.21c1.3,1.3,2.52,2.65,3.72,4.02
		c1.02-1.16,2.07-2.29,3.16-3.38c16.8-16.96,41.55-25.28,74.25-24.98h99V192.07C420.38,156.75,361.5,135.84,297.74,135.84z"/>
	<path class="st0" d="M269.44,416.98c0-2.38,0.07-4.71,0.17-7.01c-1.1-16.37-6.7-29.09-16.82-38.14
		c-11.35-10.14-29.29-15.21-53.81-15.21h-35.01l95.91,95.91c5.54-7.96,8.79-17.76,9.69-29.43
		C269.48,421.09,269.44,419.05,269.44,416.98z"/>
	<path class="st3" d="M114.51,356.62v118.99h84.47c24.52,0.3,42.46-4.69,53.81-14.99c2.69-2.43,5.03-5.15,7.08-8.09l-95.91-95.91
		H114.51z"/>
	<path class="st0" d="M368.9,512.81c-30.26,0-53.7-7.21-70.35-21.61l163.61,163.61c37.22-26.26,67.87-61.2,89.03-101.87
		l-40.14-40.14H368.9z"/>
	<path class="st1" d="M511.04,231.59v281.22l40.14,40.14c20.49-39.38,32.08-84.12,32.08-131.58
		C583.26,348.51,555.96,282.04,511.04,231.59z"/>
	<path class="st4" d="M114.51,640.33c49.59,41.54,113.48,66.56,183.23,66.56c3.84,0,7.66-0.1,11.47-0.25l-194.7-194.7V640.33z"/>
	<path class="st3" d="M294.64,487.6c-1.3-1.3-2.52-2.65-3.72-4.02c-1.02,1.16-2.07,2.29-3.16,3.38
		c-16.8,16.96-41.55,25.28-74.25,24.98h-99l194.7,194.7c56.83-2.25,109.38-21.09,152.95-51.83L298.54,491.2
		C297.2,490.04,295.89,488.86,294.64,487.6z"/>
	<path class="st5" d="M467.9,192.07v129.08h-99c-32.7-0.3-57.45,8.02-74.25,24.98c-1.09,1.1-2.14,2.23-3.16,3.38
		c-1.2-1.38-2.42-2.73-3.72-4.02c-16.8-16.8-41.55-25.21-74.25-25.21h-85.88H71.36v275.08c12.71,16.51,27.18,31.59,43.14,44.96
		V511.94h99c32.7,0.3,57.45-8.02,74.25-24.98c1.09-1.1,2.14-2.23,3.16-3.38l7.62,7.62c16.65,14.39,40.09,21.61,70.35,21.61h142.15
		V231.59C498.05,217,483.6,203.75,467.9,192.07z M252.79,460.62c-11.35,10.3-29.29,15.29-53.81,14.99h-84.47V356.62h49.46h35.01
		c24.52,0,42.46,5.07,53.81,15.21c10.12,9.04,15.72,21.76,16.82,38.14c-0.1,2.3-0.17,4.62-0.17,7.01c0,2.07,0.05,4.11,0.13,6.12
		c-0.9,11.68-4.15,21.47-9.69,29.43C257.82,455.48,255.48,458.19,252.79,460.62z M467.9,476.48h-84.47
		c-24.52,0-42.46-5.07-53.81-15.21c-10.12-9.04-15.72-21.76-16.82-38.14c0.1-2.3,0.17-4.62,0.17-7c0-2.07-0.05-4.11-0.13-6.12
		c1.23-16,6.82-28.51,16.77-37.52c5.82-5.27,13.39-9.14,22.66-11.63c8.83-2.37,19.2-3.51,31.15-3.36h84.47V476.48z"/>
	<path class="st5" d="M294.64,487.6c1.25,1.25,2.56,2.44,3.9,3.6l-7.62-7.62C292.12,484.96,293.35,486.31,294.64,487.6z"/>
</g>
</svg>
